<?xml version="1.0" encoding="UTF-8"?>
<svg width="752pt" height="752pt" version="1.1" viewBox="0 0 752 752" xmlns="http://www.w3.org/2000/svg">
 <g>
  <path d="m340.01 188.94 1.8945-0.47266 0.47656-0.94922-0.94922 0.47266h-1.8945l-0.47266 0.47656-1.4219 0.47266-0.47266 0.47266h1.4219z"/>
  <path d="m254.77 261.39 0.47266-1.8945-0.94531 0.47266-0.47656 1.4219v1.8945l0.47656 0.47266 1.418-0.94531-0.94531-0.47266z"/>
  <path d="m338.11 190.36 1.4219-0.47656 0.47266-0.47266-1.418 0.47266h-0.94922l-0.94531 0.47656 0.47266 0.47266z"/>
  <path d="m335.27 191.3h0.94531v-0.94531l-0.94531 0.47266z"/>
  <path d="m345.69 190.83-0.94531 0.94531v0.47656l-0.47266 0.47266h-0.94922l0.47266-0.94922-1.8945 0.47656-1.418 0.47266-0.94922 0.47266-0.94531-0.47266h-0.94922l-0.94531 0.47266-1.8945 0.94531 1.418-0.94531v-0.47266l-2.3672 0.94531-0.94531-0.47266-1.4219 0.47266-0.47266 0.47266v0.47656l0.47266 0.94531-0.94531 0.94922 2.3672 0.47266 0.47266-0.47266v-0.47656h5.2109l1.418-0.47266h0.94922v-0.47266l0.94531 0.47266h0.47656l0.94531 0.47266 2.8398-0.47266h3.3164l-0.47266-0.47266h0.94531l0.94922 0.47266h1.8945l0.94531-0.47266 0.47266-0.47266v-1.8945l-0.94531-0.47266h0.47266l-0.47266-0.47656h-0.47266l-0.47266-0.47266-1.8945 0.47266 0.94531-0.47266v-0.47266h-1.4219v-0.47266h-1.8945l-0.94531 0.47266z"/>
  <path d="m271.81 254.77-1.8945 0.94531-4.7344 3.3164-1.8945 0.94531-0.47266 0.94922-1.4219 0.47266-0.47266 0.94922 1.8945 1.418 1.418 0.94922 0.47656 1.418-1.4219 0.47656 0.47266 0.94531 3.3164-1.4219v0.47656l-1.8945 1.8945v0.94531l0.94531 0.47266 2.3711-2.3672 0.94531-1.8945 0.94922-1.4219h-1.4219l1.8945-1.8906-0.47266-1.4219h-0.94922l-0.47266-1.4219 0.94531-0.47266v-0.94922l-1.418 0.47656 2.8398-1.8945 1.8945-1.4219 0.47266-0.47266v-0.47266z"/>
  <path d="m261.87 256.18 0.47656-0.47266v-1.8945l-0.47656-1.8945h-0.47266l-0.47266 1.8945 0.47266 1.8945z"/>
  <path d="m330.06 191.3 1.4219-0.47266 1.8945-0.47266h-0.47266l0.47266-0.47656h-0.94531l0.47266-0.47266-2.3672 0.47266-0.47656 0.47656h-1.418l-0.94922 0.47266v0.47266z"/>
  <path d="m341.43 190.36-0.47266 0.47266h-1.8945l-1.4219 0.47266-0.47266 0.47266v0.47656h2.3672l0.94922 0.47266 1.418-0.47266 1.8945-0.47656 0.94922-0.47266 0.47266-0.47266 1.8945-0.47266v-0.47656h-1.8945l-1.4219-0.47266-1.418 0.47266z"/>
  <path d="m321.54 199.36-1.4219 0.94922h-0.47266l0.47266 0.47266 0.47656 0.47266v0.47266l0.47266-0.47266 1.8945-1.4219v-0.94531h-0.47266z"/>
  <path d="m290.76 212.14h0.94531l0.94922-0.94531 1.418-0.94531 0.47656-0.94922 0.94531-1.4219 0.94922-0.47266h-0.47656l1.4219-0.94531v-0.47656l-2.3672 0.94922-2.3672 0.94531-1.8945 0.47656 0.47266 0.47266-1.8945 0.94531 1.8945 0.47656 1.4219-0.47656-1.4219 0.94922z"/>
  <path d="m328.17 192.73 0.94922-0.47266-0.47266-0.47656h-1.4219l-0.94531 0.94922-0.47656 0.47266h0.94922z"/>
  <path d="m287.91 211.67-0.94531 0.94922v0.47266l1.8945-0.47266h0.47266v-0.94922z"/>
  <path d="m307.33 217.35-0.47266-0.94531 1.8945-2.3711v-1.418l0.94531-1.8945h2.3672l2.3711-1.8945 0.94531-0.94922 0.47266-1.418 1.4219-1.4219-0.94531-0.47266 1.418-0.94922 0.94922-0.94531 1.418-1.4219h-1.418l-1.4219-0.47266 2.3672-0.94922 2.8438-1.418-1.4219-0.94922-2.3672 0.47266 1.8945-0.94531h2.3672l-0.94922-0.94922h-1.418l-2.8438 0.47656-2.8398 0.94531-0.47266 0.94922h-1.4219l-0.94922 0.47266-0.47266 0.94531-0.94531 1.4219-0.47656 1.8945 0.47656 0.94531 0.94531-0.47266-0.94531 0.94922v0.47266l-1.4219 1.4219h-0.94531l-0.94922 1.418-0.94531 1.4219-0.94922 0.94922-0.94531 0.47266-3.3164 0.94531-1.8945 0.47266-0.94531 0.94922-0.94922-0.94922-0.47266-0.94531-2.3672 0.47266-0.47656 1.4219 0.94922 1.4219 0.94531-0.47656-0.94531 1.4219-0.94922 1.8945h-0.94531l-0.94922 1.8945-0.94531 2.3672 0.47266 2.3672 0.47266-0.94531 1.4219-1.4219 1.8945-2.3672-1.4219 2.8398v0.94922l2.3711-0.94922 2.8398-2.8398 0.47266-1.8945 1.4219-1.4219 1.8945-0.94531 0.94531 0.47266-2.3672 2.3672-0.47266 1.4219 4.2617-0.94531z"/>
  <path d="m325.33 196.99-0.47266 0.94531h1.8945l0.94531-0.47266 1.4219-0.47266v-0.94922l-0.47266-0.47266-0.47656-0.47266 0.47656-0.47266v-0.47656l0.94531-0.47266 0.47266-0.47266h1.4219l0.94922-0.47266 0.47266-0.94922 0.94531-0.47266 0.47656-0.47266h-1.4219l-0.94922 0.47266-0.47266 0.94922-1.8945 0.47266-1.4219 0.47266-1.8906 0.47266-0.94922 0.94922-0.47266 0.94531v0.47266z"/>
  <path d="m286.97 214.98-0.94922 0.47266v0.47266l1.4219-0.47266 0.47266-0.47266v-0.47266z"/>
  <path d="m304.02 209.3h0.47656l1.418-0.94531 0.47656-0.47656-0.47656-0.47266-1.8945 0.47266-1.418 0.94922 0.47266 0.47266z"/>
  <path d="m320.59 195.09h2.3672l0.94531-0.94922 0.47656-0.94531h-1.8945l-1.4219 0.47266-2.8438 0.94922-0.47266 0.47266 2.3672-0.47266z"/>
  <path d="m452.25 327.22 1.8945-1.8945v-0.47266l-0.47266-0.47266 1.4219-1.8945-1.8945 1.418-1.8945 0.47656v0.94531h-0.47266l-0.94922 0.47266 0.94922 1.4219z"/>
  <path d="m391.63 268.5 0.47266-2.3711-0.47266-1.418-2.8398 1.418 0.47266 0.94922z"/>
  <path d="m389.26 312.07 0.47266-2.8398-0.47266-2.8398-1.4219 1.418-0.47266 0.94922 0.47266 2.3672z"/>
  <path d="m366.05 269.45-1.418-3.3164v-0.47266l-1.8945-0.47266 1.8945-2.3672 0.94531-2.3672h-3.7891l1.8945-2.8438h-3.3125l-1.4219 1.8945-1.4219 3.3164 0.47266 1.418v2.8438l0.94922-1.4219 0.47266 0.94922-0.47266 1.418v0.47656l2.3672 0.94531 0.94531 1.8945-0.47266 1.8945-2.8398-0.47266-0.47266 1.8945 0.94531 1.418-2.3672 0.94922 0.47266 1.4219 3.3164 0.47266-2.3672 0.94531-3.3164 2.8438 0.94531 0.94531 1.8945-1.4219 1.8945 0.47656 1.4219-1.4219 0.94531 0.94531 3.7891-0.94531h2.8438l1.8945-1.4219-0.94922-1.418 0.94922-0.94922 0.47266-1.8945-2.3672-0.94531-0.47266-0.94922-0.94922-3.7891z"/>
  <path d="m431.41 330.06 3.7891-0.94531v-0.94922l-1.4219 0.47656v-0.47656h-1.8945l-1.8945 0.47656-1.8945-0.94922v1.4219l3.3164 0.47266z"/>
  <path d="m310.65 237.24 1.418-2.3672 3.3164-0.94922 1.8945-1.418 1.8945-1.4219 1.8945-0.94922h4.7344l3.3164-0.94531 3.3164-1.8945 1.8945-0.47266 1.418 0.47266h3.3164l4.2617-1.4219 3.7891-1.418-1.4219-0.47656-2.3672-0.47266 1.8945-0.94531 0.94531-1.4219v1.4219l0.47656 0.94531h1.8945l0.94531-1.8945-0.47266-1.4219-0.94922-0.94531 0.94922-0.47266 0.94531 1.418 0.94922-0.94531-0.47266-1.8945 1.418 0.47266 1.4219-0.47266 0.94531-0.47266-0.47266-0.94922h1.8945v-1.8945h0.94922l0.94531-1.8945-0.47266-0.94531 1.4219-0.47266h0.94531v-1.4219l1.4219-2.3672 1.418-0.94922 1.4219-1.418h-0.94531 1.8945l0.47266-0.47656 2.8398-0.94531v-0.94922l-0.94531-0.47266-2.8438 0.47266-1.418 0.47656 1.418-0.94922v-0.94531l-1.418 0.47266-0.47656-0.94531h-1.418v-0.47656l2.3672 0.47656h1.4219l1.418-0.47656-0.94531-1.418-2.3672-0.94922-1.4219-0.47266-0.94531 0.47266-0.94922-0.47266-2.3672 0.47266-0.94922 0.47266-0.94531 0.94922 0.47266-0.47266-0.47266-0.47656 0.47266-0.94531-2.3672 0.47266 0.94531-0.47266-0.94531-0.47266-0.94531-0.47656h-1.4219l-1.4219 0.47656-0.47266-0.47656h-2.8438l-1.418 0.47656-0.47266 0.94531h-3.3164l-2.3672-0.94531-0.94922 0.47266-0.94531 0.94531v1.8945l-0.94922-0.94531h-1.418l-1.4219 0.94531-0.94922 0.94922 0.94922 0.47266 1.4219 1.4219-0.47656 1.8945-1.418 0.47266-0.47656 0.94531-2.3672 1.8945-1.8945 1.4219-0.47266 0.94922-3.3164 0.94531v0.94531h0.94922l-0.47266 0.94922-0.47656 1.8945-0.94531-1.4219h-0.47266l-1.4219 0.47266-1.8945 1.4219v0.94922h3.3164l-2.3711 1.418-0.94531 0.47656h-2.3672l-3.7891 1.8906v0.94922l-2.3672 1.4219-1.4219 2.3672-1.8945 1.8945-1.4219 1.8945-1.418 3.7891-1.8945 2.3672v1.8945l1.8945 0.94531v2.8438l1.418 0.47266 2.8438-2.3672z"/>
  <path d="m356.11 271.34 1.4219-1.8945-1.8945-2.3672h-1.4219l-1.8906 1.4219-2.8438 1.8945 0.47266 3.3125-2.3672 3.3164 2.8438 0.47266 3.7852-1.4219 1.8945-2.8398z"/>
  <path d="m351.85 238.66-0.94531-2.3672 0.94531-1.4219-1.8945-0.47266-2.8398 0.94531-1.4219-0.94531-2.3672 0.94531-0.94531-1.8945h-1.8945l-1.8945 1.4219 2.3672 0.94531-0.47266 0.94922h-2.3711l1.8945 1.8945-1.8945 0.94531 3.3164 1.4219 1.8945 0.47266h1.4219l4.2617-1.4219z"/>
  <path d="m403.47 325.8 1.8945 1.4219 0.47266-1.8945-0.47266-0.94531 0.47266-2.8438-1.8945 0.47266-2.3672 0.47656h-3.3164v1.8945l3.7891 1.418z"/>
  <path d="m387.37 319.17 0.94922 0.94531 0.94531-0.94531h1.4219v-4.2617l-1.4219-2.3672-1.4219 0.94531h-1.418l0.94531 1.8945z"/>
  <path d="m509.55 471.66-0.47266-1.4219-0.47266-0.94531-0.94922 1.8945-0.47266 1.8945-1.8945 2.3672h-0.94531l0.47266 1.4219-0.94922 1.418-2.3672 2.8438-1.8945 1.8945-0.94531 0.47266-0.94922 0.94922-1.4219 0.94531-1.418 0.47266-0.47266 1.8945-1.4219 1.8945-0.47266 2.3672v1.8945l0.47266 0.94922-0.94922 1.8945-1.418 2.3672-0.47656 0.94531-0.94531 0.94922-1.4219 1.8945v3.7891l-0.47266 1.8945v1.418h2.3672l2.3672-1.418 2.3711-1.4219 1.8906-3.3164 2.3711-4.2617 2.8398-5.207 2.3672-4.2656 1.4219-3.7852 0.94531-2.3711 0.47656-0.94531 0.47266-1.4219 0.47266-1.8945 0.47266-0.94531 0.47656 1.418 0.47266-0.94531 0.47266-1.4219-0.47266-1.418 0.47266-3.3164z"/>
  <path d="m388.32 208.36-0.94922 0.47266 0.47266 0.47266v0.47266l1.4219 0.47656 0.94531-0.94922-1.418-0.47266z"/>
  <path d="m385 205.98 0.47266 0.47656h1.8945l1.4219-0.47656 0.47266-1.418-1.4219-0.47656h-1.8945v0.47656l-0.94531-0.47656-1.4219 0.94922 0.94922 0.94531z"/>
  <path d="m382.16 209.77 1.4219 0.47656-0.47266 0.47266 1.8945 1.418h0.94531l-0.47266-1.8906 0.47266-0.47656v-1.418l0.94922-0.94922-2.3672-1.4219-0.94922-0.47266h-0.94531v0.94922h-0.94922l-0.47266-0.47656-1.4219 0.47656 0.94922 1.418z"/>
  <path d="m205.98 343.8v-0.94531l-0.47266-0.94922-0.94531-0.94531v0.47266l-0.47656 1.4219 0.47656 0.47266 0.94531 0.94922z"/>
  <path d="m397.79 202.2h0.94922v-0.94531l0.47266-0.47266-0.47266-0.47266h-0.94922v0.47266l0.47266 0.47266-0.94531-0.47266-0.94531 0.94531 0.94531-0.47266z"/>
  <path d="m408.2 192.73h4.2656l0.47266-0.94922-0.47266-0.47266-2.8438-0.47266h-2.8398l-1.8945 0.47266 0.94531 0.47266z"/>
  <path d="m415.78 191.78-1.8945-1.418-1.418-0.47656-1.4219 0.47656 0.47266 0.47266z"/>
  <path d="m414.36 202.67 0.47266 0.94531-0.47266 1.4219v3.3164l1.418 0.47266 0.94922 2.3672h0.94531l0.47266 1.8945 1.4219 1.4219v0.47266l1.4219 0.94531h1.8945l0.94531 0.94922 2.8438-0.94922v-0.47266l-3.3164-0.94531-2.3672-1.4219-1.4219-2.3672-1.4219-1.8945-0.94531-2.3672v-1.8945l-0.47266-1.4219-0.47656-0.94922h-1.418z"/>
  <path d="m205.04 373.16v1.4219l-0.47266 0.47266v0.47266l0.94531 0.94922 0.47266-2.8438z"/>
  <path d="m575.38 354.21-3.3164-21.785-5.2109-21.312-7.5781-20.836-9.4727-19.891-11.367-18.469-13.262-17.523-14.68-15.629-16.102-14.207-17.523-12.312-18.469-9.9453-19.418-8.0508-20.363-5.6836-20.836-3.3164-21.781-1.418-20.363 0.94531-20.836 3.3164-20.363 6.1602-19.891 7.5742-18.941 9.9453-17.523 12.312-16.102 13.734-14.684 16.102-13.262 17.051-11.367 18.469-9.4727 19.891-7.5781 20.836-5.6836 21.312-3.3164 21.785-0.94141 22.73 0.94531 21.785 3.3164 21.785 5.2109 21.312 7.5781 20.836 9.4727 19.891 11.367 18.469 13.262 17.523 14.68 15.629 16.102 14.207 17.523 12.312 18.469 9.9453 19.418 8.0508 20.363 5.6836 20.836 3.7891 21.312 1.4219 20.363-0.94531 20.836-3.3164 20.363-5.6836 19.418-8.0508 18.941-9.9453 17.523-12.312 16.102-13.734 14.68-15.629 13.262-17.051 11.367-18.469 9.4727-19.891 7.5781-20.836 5.6836-21.312 3.3164-21.785 0.94531-22.73zm-82.875-49.723-2.3672 2.3672-2.8398 0.47266-1.8945-0.94531h-1.8945l-1.4219-1.8945-0.94531-1.4219 0.47266-0.94531v-1.4219l-1.4258-2.8438 1.4219-0.94531-0.94531-0.47266h-0.94531l-1.8945-1.8945-1.8945-1.4219-3.793-2.3672-0.94531-1.8945-3.3164-2.3672v-3.7891l1.4219-0.94531-0.47266-1.8945 0.94531-1.4219 0.94531-1.8945h1.8945l1.4219-0.94531 1.4219 1.8945 1.4219 2.8398h-1.4219l-0.47266 0.94531 1.4219 2.3672-1.8945 0.47266 0.47266 0.94531 1.4219 0.47266 2.3672 2.3672h2.3672l0.94531 0.94531 0.47266 1.4219 0.47266 0.47266 1.4219 1.8945-0.94531-2.3672 0.94531-1.4219 1.4219 1.4219 2.3672 1.4219-0.94531 1.8945h-1.8945l0.94531 2.8398 1.4219-0.47266 0.47266 2.3672 1.8945 0.47266 1.4219 3.3164 1.4219 1.8945zm-66.305-114.13-0.94531-0.47266h-0.47266zm128.34 152.49 0.47266 3.7891v-0.47266zm-233.48-151.07h0.47266zm235.37 204.59-2.8398 19.891-4.7344 19.418-6.6289 18.941-8.5234 17.996-10.898 17.047-11.84 15.629-13.262 14.207-15.152 12.785-16.102 10.891-17.051 8.9961-17.523 7.1055-18.469 5.2109-18.469 3.7891-18.941 0.94531-18.941-0.94531-18.469-3.3164-18.469-5.2109-17.523-7.1055-17.051-8.9961-16.105-11.363-14.68-12.785-12.785-13.262-0.94531-2.3672-0.94531-1.4219-0.47266-1.8945 0.47266-1.8945 1.4219-0.94531 1.8945 0.47266 0.94531-0.47266 2.8398 0.47266 2.3672 0.94531v-1.4219l1.4219-0.47266-0.47266-2.8398 1.4219-2.8398-0.47266-3.3164 0.47266-0.94531v-1.8945l-0.47266-4.2617-1.4219-5.6836 0.47266-1.8945h0.47266l1.4219-1.8945 0.94531-2.8398 2.8398-2.8398 0.94531-1.4219 0.47266-4.7344-0.47266-1.8945-0.94531-4.2617-0.94531-1.4219-2.3672-0.94531-1.8945-1.4219-3.3164-4.7344-4.2656-2.8438-3.3164-1.4219-4.7344-3.7891h-2.3672l0.47266-1.4219-0.94531-2.3672-3.7891-3.7891-2.8398-2.3672-1.4219 0.94531v-3.3164l-3.3164-2.3672-0.47266-1.4219 1.4219-1.8945v-2.3672l-0.94531-0.94531-1.4258-6.6289-0.47266-1.8945h-0.47266v-1.4219l-1.8945-3.7891-1.4219-2.3672-0.47266-0.47266-1.8945-2.3672-1.4219-0.94531v0.47266l-1.8945-1.8945-0.47266-1.4219-0.47266-2.3672-0.94922-0.47656v-1.8945l-0.47266-2.8398-0.94531-1.8945-0.47266-1.4219-0.47656-0.47266v-2.8398l-0.94531-2.3672-0.94531-1.4219v-1.8945h1.4219l-2.8438-2.8438v0.94531l-1.4219 0.003906-0.94531-1.4219-0.47266-2.3672-1.4219-0.94531-0.94531-1.4219v-0.94531l-0.003907-2.3711-0.47266-0.94531v-2.8398l-0.47656 0.47266v1.8945h-0.47266v-4.7344l2.8398-19.891 0.47266-1.8945 0.47266 0.94531 0.47266 0.47266 0.47266 1.4219-0.47266 0.94531v0.94531l0.94531-1.8945h0.47266v0.94531l0.47266 0.47266 0.47266-0.47266 0.94531 0.94531v1.4219l0.94531-0.94531v-1.8945l-0.47266-0.47266 0.47266-0.94531-0.47266-0.47266v-1.4219l-0.47266-0.47266v-1.4219l-0.47266-0.94531-0.47266 0.47266-0.47266-1.4219-0.9375-0.94531-0.47266 0.47266 0.47266 1.4219-0.47266 1.4219v1.8945l-0.47266 0.47266-0.47266-1.4219 4.2617-16.574 6.6289-18.941 8.0508-16.102 0.47266-0.47266 0.47266 0.47266 1.4219-0.94531 0.94531 0.47266 1.8945-1.4219 1.8945-2.8398 0.47266-0.94531v-0.47266l1.8945-2.8398 0.47266-1.4219v0.94531l1.4219-1.8945 0.94531-0.94531-1.4219 2.3672-0.47266 1.4219-1.4219 1.4219 1.8945-1.4219 0.003906-1.4297 0.94531-0.94531 0.47266-0.94531 0.94531-1.8945-0.47266 0.94531v0.47266l-0.47266 0.94531 1.8945-1.4219 1.4219-1.8945v-0.47266l0.94531-0.47266-0.46875 0.94922 0.47266 0.47266 1.4219 0.47266v-0.94531l-1.4219-0.94531h0.94531l0.94531 0.94531 0.94531 0.47266 0.47266 0.47266 0.94531 0.47266 0.47266-0.47266 0.47266-0.94531-0.94531 0.94531v-0.47266l0.94531-1.8945 0.94531-1.4219 0.47266-0.47266 1.4219-0.94531h2.8438l1.8945-0.47266 0.47266-0.94531 0.94531 0.47266 1.4219 1.4219-3.3164 0.47266-1.8945 2.3672 0.47266 0.94531 2.3672-0.94531h1.8945l3.3164 0.47266 2.8398-0.47266v-1.4219l1.4219-1.8945-3.3164 2.3672-1.8945-0.94531v-2.3672l1.4219-2.3672 2.3672-2.8398 2.3672-0.94531 0.47266-1.8945-1.4219-0.94531-3.3164 0.47266-4.2617 1.8945-0.94531-0.47266 2.8398-1.4219 4.2617-1.8945h1.8945l2.3672-0.94531 0.94531 0.47266 0.94531 1.4219 1.4219 2.3672 1.8945 0.94531 3.3164-0.94531 2.3672 0.47266 2.8438-0.94531 2.3672-2.8398 0.47266-1.4219 0.49219-1.9062 1.4219-2.3672v-1.4219l-0.94531-1.8945 0.47266-1.8945 0.47266-2.3672 1.8945-0.94531 2.3672-3.3164 2.3672-3.7891 1.8945-2.3672-1.4219 0.47266-3.3164 1.4219h-2.3672l1.4219-1.8945v-0.94531l3.3164-2.8398 2.3672-1.4219-0.47266-1.4219 0.94531-0.94531 1.4219-1.8945 0.47266-1.4219h-0.94531v-0.94531l0.47266-1.4219h-0.94531l-4.2617 2.8398-2.8438 3.3164-3.3164 0.94531-1.8945 2.3672-2.3672 2.3672-1.8945 1.4219-1.8945 0.94531-1.8945 0.47656-1.4219-0.47266-1.4219 1.4219-4.2578 3.7852-2.8398 1.8945h-0.94531l2.3672-3.3164 2.8398-2.8398 2.8398-2.3672 2.3672-1.4219v-2.3672l1.8906-2.8438 1.4219-1.4219 14.68-9.9453 3.7891-1.8945v0.47266l1.8945-0.94531h0.94531v0.94531h1.8945l1.4219-0.47266 2.3672-0.47266 1.4219-0.47266-0.94531 0.94531 0.47266 0.47266h2.3672l1.4219-0.47266 1.4219-0.94531 1.8945-0.47266 1.4219-0.47266 1.4219-1.4219 0.47266-0.94531v-0.94531l-3.3164 1.4219-2.8398 0.47266-2.3672 0.47266 1.8945-1.4219 2.3672-0.47266 1.8945-1.4219h-2.3672l3.3164-0.94531 0.94531-0.94531h1.4219l3.7891-1.8945 1.4219-0.94531 0.47266-0.47266h-1.8945l-3.3164 0.94531-1.4219 0.94531-1.8945 0.94531-2.8398 0.94531v-0.47266l2.8398-0.94531h0.47266l1.4219-0.47266 0.47266-0.47266 5.2109-2.3672 0.94531 0.47266 2.8398-0.47266 1.4219-0.94531h1.4219l0.94531-0.47266v-0.47266l0.94531-0.47266h-0.94531l14.68-4.2617h3.3125l0.47266 0.47266 0.94531-0.47266h0.47266l14.691-4.7461 18.941-0.94531 18.941 0.94531 18.469 3.3164 5.2109 1.4219-0.94531 0.47266 0.47266 0.94531 0.94531 0.47266h-1.4219v0.47266l-0.94531-0.47266-0.94531 0.47266 1.4219 0.94531 2.8438 0.94531v0.47266l1.8945 0.94531h-0.47266l0.47266 0.94531 0.94531 0.47266 0.47266 0.94531 1.4219 0.94531v0.47266l1.8945 0.94531 1.8945 0.47266v0.94531l-0.47656 0.96875 0.47266 0.94531 3.3164 1.4219 2.8398 0.47266h-2.3672l-0.47266 0.94531 0.47266 1.4219 2.3672 0.94531h-0.94531l-2.8398-1.4219-1.8945-0.47266 2.3672 0.94531 1.4219 1.8945 2.8398 0.47266 2.8398 1.8945 1.8945 0.94531 0.47266-0.47266 1.8945 1.4219 1.8945 0.47266 0.94531 1.4219 1.4219 0.94531v0.94531l0.94531 0.94531-0.94531 0.47266-3.3164-3.3164-1.8945-1.4219-2.3672-0.47266-3.7891-2.3672-2.3672-0.94531h-0.94531l-1.8945-1.4219-1.8945-0.94531-1.8945 0.47266 0.47266 0.47266 2.3672 1.4219 1.8945 2.3672 0.94531 0.47266 2.3672 0.94531 0.94531 0.94531 0.94531-0.47266 0.47266 0.47266 1.8945 0.47266 0.94531 1.4219-4.7227-0.92969h-1.4219l-2.8398 0.47266 0.47266 0.94531 2.3672 0.47266 0.94531 1.8945-2.3672-0.47266v1.4219l-1.4219 0.94531 0.47266 0.94531-1.4219 0.47266-0.47266-1.4219h-0.47266l-0.94531 3.3164-0.94531 1.8945 0.94531 1.4219-0.94531 0.94531-1.4219-0.47266-0.94531-1.4219 0.94531-0.94531-2.3672-0.94141h-3.3164l1.8945 0.94531 0.47266 1.4219 1.8945 0.94531 0.94531 1.8945-1.4219-0.47266h-0.94531l-0.94531 2.8398 1.8945 1.4219-0.47266 0.94531-3.7891-0.47266v0.94531l1.4219 0.94531 0.47266 1.4219-1.4219-0.47266-1.418 0.47656-1.8945-2.3672-0.94531-0.94531-2.8398-1.4219 0.47266-0.47266 6.1562 0.47266 1.4219-0.94531v-1.4219l-1.4219-1.4219-0.94922-1.8945-5.6836-1.4219h-3.3164l-2.3672-0.94531-0.47266 0.94531-2.3672-0.94531 0.94531-0.94531-4.2617-0.94531-1.4219 0.94141h-1.8945l-0.47266 2.3672h-1.8945l-1.8945 1.4219-2.3672 3.3164-1.4219 1.8945-1.8945 5.2109-2.3672 3.7852-2.3672 2.8398-3.7891 2.3672-1.4219 1.8945 0.47266 6.6289 0.47266 2.8398 2.3672 1.4219 2.3672-0.94531 2.8398-3.3164 1.4219 1.8945 1.8945 3.7891 1.8945 3.3164 0.94531 2.8398 2.3672-0.47266 0.47266-2.3672h2.3672l0.47266-2.8398-0.47266-4.7344 1.4219-0.94531 0.47266-3.3164-1.8945-1.4219-1.4219-1.8945v-3.7891l2.3672-2.3672 1.4219-2.3672-0.46484-1.8945 0.47266-1.8945 1.8945-0.94531 2.3672 0.94531 0.47266 0.94531 0.003906 0.94922-1.8945 3.3164-0.94922 1.418v1.4219l1.4219 2.3672 0.47266 2.8398 1.8945 0.47266 1.4219 1.4219 2.3672-0.94531 2.3672-1.4219 2.8398-0.47266 2.3672 0.94531-0.94531 1.8945-2.3672 0.47656h-1.8945l-1.8945 0.47266-1.8945 0.94531 0.47266 1.4219 1.4219 0.94531 0.47266-0.47266 0.47266 1.8945 0.47266 2.3672-1.4219 0.47266-1.8945-1.8945-1.4219 1.4219-0.47266 1.8945 0.47266 2.3672 0.94531 2.3672-1.4102 0.47656v1.4219h-1.8945l-0.47266-0.47266-1.8945-0.47266-2.3711 1.418-2.8398 1.4219-0.94922 1.418-0.94531-0.94531-2.3672-0.94531-0.94531 0.94531-1.8945 0.47266v-0.94531l-1.8945-0.47266v-0.94531l-1.4219-1.8984 0.94531-2.3672 0.47266 0.47266 0.47266-0.94531-0.94531-0.47266-0.47266-0.94531 0.47266-0.94531v-1.4219l-1.4219 0.94531-0.47266 0.94531h-1.4219l-0.94531 1.8906 0.47266 2.8398 0.94531 1.4219v1.8945l0.47266 0.94531-1.4219 1.4219-0.47266-0.47266h-1.4219l-0.47266 0.47266h-1.4219l-2.8398 1.4219-1.8945 4.7344-0.94531 0.94531-1.8945 0.47266-0.94531 0.48047-0.94531 2.3672-5.2109 2.8398-1.8945-1.4219 0.47266 3.7891-3.7891-0.94531h-2.8398v2.3672l3.3164 1.4219 1.4219 1.8945 1.8945 3.3164-0.94531 6.6289-0.95312 1.8945-3.7891-0.47266h-1.8945l-2.3672-0.94531h-3.3164l-2.8398-0.47656-3.7891 1.8945 0.94531 1.4219-0.47266 2.3672v0.94531l0.47266 1.4219v1.4219l-1.418 1.8945-0.47266 1.418-0.94531 0.94531-0.94922 2.3711 0.47266 1.4219 0.94531 0.47266v1.8945l-0.94531 2.8398 1.4219-0.47266 1.4219 0.47266 0.94531-0.94531 2.3672 0.94531 0.47266 1.8945 0.94531 1.4219 1.4219 0.47266 0.94531-1.4219 1.8945-0.94531h5.6836l1.8945-2.3672 1.8945-0.47266 0.47266-2.3672 1.4219-1.4219-0.94531-1.8945 0.94531-2.8398 1.4219-1.8945 0.47266-0.94531 3.3164-0.47266 2.3672-2.3672v-1.8945l0.47266-1.8945 3.3164-0.94531 4.7344 0.94531 1.8945-1.8945 0.94531-0.47266 1.4219-1.4219 0.94531-0.47266 1.8945 0.94531 1.4219 0.47266 0.94531 3.3164 1.8945 1.8945 2.3672 1.8945 1.8945 1.4219h1.8945l1.4219 1.4219 1.8945 0.47266 0.94531 1.4219 0.94531 0.47266 0.94531 1.4219 1.4219 1.8945-0.47266 0.94531-0.47266 1.8945v0.94531l0.94531-0.47266 0.94531-2.8398 0.94531-0.47266v-1.8945l-1.8945-0.94531 0.94531-2.3672 2.3672 0.47266 1.4219 1.4219 0.47266-1.4219-0.47266-0.47266-2.3672-1.4219-1.8945-0.94531-2.3672-0.94531 0.47266-0.94531-0.47266-0.47266h-1.8945l-2.8398-2.3672-1.4219-2.8398-2.3672-1.4219-0.94531-1.4219v-0.94531l-0.47266-1.4219 1.8945-1.4219 1.8945 0.47266-0.47266 0.47266v0.94531l0.94531 0.94531 0.47266-1.4219 1.4219 0.47266v0.94531l1.4219 1.4219-0.47266 0.47266 2.3672 2.3672 2.3672 0.94531 1.4219 0.94531 2.3672 0.94531 0.94531 0.47266 0.94531 0.94531h0.47266l0.47266 0.47266v3.3125l0.47266 1.4219 1.4219 0.94531v0.94531h0.47266l0.47266 0.94531 1.4219 1.8945 1.4219 1.4219 0.94531 2.3672 1.4219 2.3672 2.3672 1.4219 1.8945-0.47266-1.4219-2.8398 1.4219-0.47266-0.94531-1.4219 2.3672 0.47266 0.96094-2.3594-1.4219-0.94531-1.8945-1.4219 0.94531-0.94531-1.418-1.4219-0.94531-1.8945 0.47266-0.94531 1.4219 1.4219h1.4219l0.94531-0.94531-1.8945-1.4219 2.8398-1.4219h2.8438v0.47266l0.94531 1.4219 1.4219-1.4258 0.94531-1.4219 2.8398-0.47266v-0.94531l-2.3672-0.47266-0.47266-1.4219-1.4219-1.8945v-2.3672l0.94531-1.4219-0.46875-4.2617h0.94531l0.94531-0.94531-0.47266-0.94531 0.94531-2.8398v-1.8945l1.8945-0.94531 0.47266 0.94531h3.3164l0.94531 0.47266-1.4219 1.4219v0.47266l2.3672 0.47266v1.4219l1.4219 0.47266 1.8945-2.3672 1.8945-0.94531v-1.4219l-1.8945 0.94531-1.4219-0.47266-0.94531-1.8945 1.4219-1.4219 1.8984 0.46875 0.94531-1.4219 1.4219-0.47266 1.4219-0.94531 0.47266 0.47266-2.3672 1.8945 1.4219 0.94531-0.47266 2.8398-1.4219 0.94531 2.3672 1.4219 2.8398 0.47266 3.7891 1.8945 0.94531 0.94531h1.4219l1.4219 0.94531 1.4219 1.8945 0.47266 1.4219-1.8945 2.375-1.8945 0.47266-2.3672 1.4219-3.3164-0.47266-4.7344-1.4219-3.3164 0.94531-2.3672 1.4219-1.8945 2.8398-4.2617 0.47266v2.3711l-3.3164 0.94531-1.8945 3.7891 1.8945 1.4219-0.94531 2.3672 2.3672 1.4219 2.3672 3.3164 2.8398-0.47266 2.8398 1.4219 1.4219-0.94531v-1.4219l2.3672-0.47266 2.3672 1.4219 3.3164-1.4219 0.94531-2.3672 2.3672 0.47266 1.4219-0.47266-0.47266 1.4219 1.4219 1.4219v1.4219l0.94531 2.3672-0.47266 2.8398v8.5195l-0.47266 1.4219-0.94531 0.94531-1.8945 0.47266-2.3672-0.47266-0.47266 1.4219-0.94922-1.8945h-1.8945l-2.3672 0.94531-0.94531 1.4219-1.8945 1.4219-1.4219-0.47266-5.6797-0.94531-3.3164 0.47266-0.94531-0.94531h-2.8398l-0.94531-0.47266h-0.94531l-0.48438-1.4258h-3.7891l-1.8945 0.47266-1.8945 1.8945-0.47266 1.8945 0.94531 2.3672-0.94531 1.8945-1.4219 0.94531-3.3164-1.4219-4.2617-0.94531-1.8906-0.47266-1.4219-2.8398-3.7891-1.4219-2.3672-0.47266-0.94531 0.47266-3.3164-0.94531-0.94531-0.47266-1.4219-1.8984h-1.4219l-0.47266-1.8945 1.8945-1.8945v-2.8398l-0.94531-0.94531v-1.4219l1.4219-1.8945-0.47266-0.47266-2.3672 1.4219v-1.8945l-1.8945-0.47266-2.8398 1.4219-1.8945 0.47266-0.94531-0.94531h-2.8398l-2.3672 1.4219-1.4219-0.47266-4.2617 0.47266-4.7344 0.47266-2.8516 0.94141-1.8945 1.4219-2.8438 0.47266-2.8398 1.8945h-0.94531l-2.8398-0.94531h-2.3672l-1.4219-1.4219h-1.8945l-0.94531 1.8945-2.3672 3.3164-2.3672 1.4219-2.8477 0.94141-1.8945 2.3672-0.47266 1.8945-1.4219 2.8398v4.2617l-2.8398 2.8477-1.4219 0.94531-2.3672 2.3672h-2.8398l-1.4219 0.94531-2.3711 3.3164-1.8945 0.94531-1.4219 1.8945-0.47266 1.8945-0.94531 1.8984-0.94531 0.47266-1.8945 1.8945-1.4219 2.3672v1.4219l-0.94531 1.8945-1.4219 0.94531-0.94531 2.8438 1.4219 1.8945 0.47266 1.8945-0.47266 1.8945v5.2109l-0.47266 3.3164-0.94531 1.4219v1.8945l-0.94531 1.8945-1.8945 2.3672-0.95703-0.48047 1.4219 1.4219 0.94531 2.8398-0.47266 1.8945 0.47266 2.8398v0.94531l0.94531 0.94531v0.47266l0.47266 0.94531 1.4219 0.47266 1.4258 1.4297 0.94531 0.47266 0.47266 0.94531 0.47266 1.4219 0.94531 0.94531 0.94531 0.47266 0.94531 1.4219 1.4219 2.3672 0.47266 2.3672 0.47266 1.4219 1.4219 1.8945 2.3672 1.4219 0.94531 0.47266 1.8945 2.3672 2.8398 2.3672 2.8398 2.8398 3.3164 1.8945h1.418l3.3164-0.94531 2.3672-0.94531 3.7891-0.47266h1.8945l2.3672 0.94531h1.4219l2.8398 0.94531 2.8398-0.94531 1.8945-0.94531 5.2109-1.8945 5.6797-0.94531h5.207l2.3672 2.3672 0.94531 2.3672 1.8945 1.8945h2.8398l1.4219-0.94531h1.4219l3.3164-1.4219v0.94531l0.94531 0.47266 0.47266 1.4219 1.4219 0.47266 1.4219 2.3672-0.92578 3.793-0.94531 3.7891 0.47266 0.47266-0.47266 2.3672-1.4219 2.3711-0.94531 0.94531v0.94531l1.8945 3.3164 2.3672 2.3672 3.3164 2.8398 2.8398 3.3164 0.94531 2.3672 0.47266 0.94531-0.47266 0.47266 1.4219 1.8945 0.47266 1.8945 0.94531 2.8398-0.94531 1.4219v0.47266l1.8906 3.7891 0.94531 0.94531v1.4219l-0.47266 2.3672-0.94531 1.4219-1.8906 2.375-0.94531 1.4219-0.94531 2.8398v1.4219l-1.4219 2.8398-0.47266 2.3672v3.7891l2.3672 2.3672 0.47266 1.4219 1.4219 2.8398 1.4219 1.8945 0.94531 0.94531 0.47266 1.4219v2.8398l0.47266 3.7891 0.47266 1.4219 0.47266 2.3672 0.94531 1.4219 1.8945 1.4219 1.4219 2.8398 0.94531 1.8945 1.4219 1.8945-0.47266 1.4219-0.94531 0.47266 0.47266 1.4219-0.47266 0.94531v0.47266-0.47266l0.94531 0.94531h0.94531l0.94531 0.47266h1.4219l1.8945-0.94531 2.3672-0.47266 2.8398-0.94531h0.94531l1.4219-0.47266h2.8398l1.4219-0.47266h1.4219l0.47266-0.47266 1.4219-0.47266 2.8398-1.4219 4.7344-2.8438 3.7891-2.8398 1.8945-1.8945 0.94531-1.4219 1.8945-1.8945 2.3672-1.4219 0.94531-0.94531 0.94531-1.8945 1.4219-1.8945 0.47266-1.4219h-0.47266v-0.94531l1.4219-0.94531 3.3164-1.8945 2.3672-1.4219 1.4219-0.94531 0.47266-0.94531-0.47266-0.47266 0.94531-1.4219 0.94531-2.3672-0.47266 0.47266v-2.3672l-0.94531-1.8945 0.47266-1.8945 1.4219-0.94531 7.1016-7.1016 3.3164-2.3672 2.3672-1.8945 1.8945-2.3672 1.4219-2.3672 0.94531-2.3672v-1.4219l0.47266-4.7344v-2.3672l0.47266-2.8398-0.47266-1.4219-0.94531-0.47266-0.94531-2.8398 0.95703-1.9102v-2.3672l0.94531-1.8945v-0.94531l-1.4219-0.47266v-1.8945l1.4219-4.2617 0.94531-1.4219 0.47266-2.3672 0.94531-1.4219 0.47266-2.3672 0.94531-0.47266 0.47266-1.4219 1.8945-1.8945 0.47266-0.94531 0.47266-1.8945 2.8398-4.7344 2.3672-3.3164 3.7891-4.7344 2.3672-3.7891 2.8398-5.6836 1.8945-4.7344 1.4219-5.6836 0.94531-4.7344 0.47266-4.2617v-3.7891l0.47266-1.4219-0.47266-1.8945v-2.8398l0.015625 0.46484-0.94531 1.4219-1.8906 1.8906-0.94531 0.47266-1.4219 0.47266-0.94531 0.94531-0.94531 0.47266-1.8945 1.8945-2.375 1.9023-2.3672 1.8945-1.4219 0.47266-1.4219-0.94531-0.47266-1.4219-0.94531-0.47266-1.4219-0.47266 1.4219-1.4219v-1.4219l-0.47656-0.94531-1.4219-0.47266-0.94531-0.94531-1.8945-1.4219-1.4219-1.8984-3.7891-2.3672-1.8945-1.4219-1.4219-2.8398-2.3672-3.7891-1.4219-0.94531-0.94531-0.47266-1.8945-3.7891-0.94531-3.3164 0.47266-0.94531-1.4219-3.3164-0.47266-0.47266-3.7891-2.3672-0.47266-2.3672 0.47266-0.94531-3.3164-3.3164-1.418-0.47656-1.4219-1.4219-3.3164-4.7344-1.8906-3.7891-1.8945-3.3164v-0.47266l2.8398 4.7344 2.3672 2.3672 0.47266-0.94531 0.94922-1.8945v-2.8398l0.47266-1.4219v5.2109l1.4219-0.47266 4.2617 4.2617 1.4219 2.3672 0.94531 0.47266 0.94922 1.8945v0.94531l1.4219 1.8945 1.4219 0.47266 1.4219 0.94531 2.3672 3.3164 0.47266 1.8945 0.94531 2.3672 2.3672 2.8398h1.4219l2.3672 1.8945 1.4219 2.3672 1.8945 2.3672 1.4219 0.94531 0.47266 1.4219 0.94531 0.94531 0.94531 2.8438v0.94531l0.47266 1.4219-0.47266 0.47266 0.94531 0.94531 0.94531 2.3672 0.47266 0.94531v1.8945l0.007813 1.4336 1.8945-0.47266 0.94531-0.94531 1.4219-0.47266 0.47266-0.94531 0.47266-0.47266 0.47266-0.94531 0.47266-0.47266 1.8945-0.94531 1.4219-1.4219 0.94531-1.8945h0.94531l0.94531-0.47266 1.4219-3.3164 3.3164-3.3164 1.8945-2.3672v-2.8398l1.4219-1.4219 0.94531-0.47266 0.94531-1.8945 1.4219-0.47266 0.94531-1.4219-0.94141-1.4297 0.47266-1.4219 1.4219-0.47266 0.47266-0.94531v-1.8945l0.94531-1.8945 0.94531-0.47266v-0.47266l-1.4141-1.8984v-2.8398l0.94531-0.47266v-2.8398l0.47266-1.4219v-4.2578h-0.94531l-2.3672-2.3672h-1.4219l-1.4219 0.47266-1.418-0.48047-1.4219-1.8945-0.94531-2.3672v-0.94531l-0.47266-1.4219h-0.47266v1.4219l-1.418 8.5195-1.4219 0.47266-1.8984 0.94922-1.4219 1.4219-0.47266-1.4219-0.47266 0.47266-0.47656-0.94531v-2.3672l-0.94531-1.8945-0.94531-0.94531-0.47656 0.94531v1.8945l0.94531 2.3672-0.47266-0.47266-0.47266-0.94531-0.94531-0.47266-0.47266-0.94531v-1.4219l-0.94922-1.4258-1.8945-0.94531-0.94531-0.94531-1.4219-0.47266-1.8945-2.3672-1.4219-2.3672v-0.94531l-0.94531-1.4219 1.4219-0.47266 0.47266-1.4219 1.8945 0.47266 0.94531-0.94531 2.8398 3.7891 2.3672 2.3672h2.3672l2.8398 1.4219h2.8398l1.4219-2.3672 1.4219-1.4219h0.94531l2.3672 3.7891 2.3672-0.94531 2.3672-0.47266 3.3164-0.94531 1.8945-1.8945 2.3672-1.8945 2.3672-2.8398 1.8945 1.4219 1.4219 1.8945h1.4219l2.3672 1.4219 0.94531 0.94531v1.8945l2.8398 2.3672 0.94531-0.47266 0.94531-3.7891 1.4219 2.8398 2.8438 7.5781 2.3672 5.6836 2.3672 3.3164 1.418 5.6836 1.4219 2.3672 0.47266 0.94531 0.94531 2.8398 1.4219 3.7891 1.4219 1.8945v3.7891zm-114.13 26.52-2.3672-0.94531h0.47266z"/>
 </g>
</svg>
